<svg width="42" height="42" viewBox="0 0 42 42" fill="none" xmlns="http://www.w3.org/2000/svg">
<g clip-path="url(#clip0_10_379)">
<path d="M39.5604 22.6877C39.4262 25.1292 38.7084 27.5028 37.4671 29.6094C36.2259 31.716 34.4974 33.4942 32.4267 34.7945L21.2167 41.0314L10.0067 34.7945C7.93604 33.4942 6.20753 31.716 4.96626 29.6094C3.72499 27.5028 3.00717 25.1292 2.87305 22.6877V6.38225C9.76211 6.38225 16.1212 4.09949 21.2167 0.2677C26.3122 4.11987 32.6713 6.38225 39.5604 6.38225V22.6877ZM21.2167 24.889L27.1682 29.0469L25.0689 22.0966L30.8573 17.7146L23.6014 17.5515L21.2167 10.7032L18.832 17.5515L11.5761 17.7146L17.3442 22.0763L15.2448 29.0061L21.2167 24.9093V24.889Z" fill="white"/>
</g>
<defs>
<clipPath id="clip0_10_379">
<rect width="40.7637" height="40.7637" fill="white" transform="translate(0.834961 0.2677)"/>
</clipPath>
</defs>
</svg>
