<svg width="801" height="645" viewBox="0 0 801 645" fill="none" xmlns="http://www.w3.org/2000/svg">
<path d="M79.6591 608.844V605.758C84.9501 605.758 88.0365 604.778 88.9183 602.818V528.891C88.0365 526.931 84.9501 525.952 79.6591 525.952V522.865H111.405V525.952C106.114 525.952 103.028 526.931 102.146 528.891V602.818C103.028 604.778 106.114 605.758 111.405 605.758V608.844H79.6591ZM130.952 608.844V605.758C133.206 605.758 135.019 605.611 136.39 605.317L102.881 562.695L138.889 526.98C137.517 526.294 135.019 525.952 131.393 525.952V522.865H154.468V525.952C150.353 525.952 147.315 527.078 145.356 529.332L115.814 558.579L150.353 603.406C151.921 604.974 155.007 605.758 159.612 605.758V608.844H130.952ZM223.56 608.844V605.758C228.851 605.758 231.937 604.778 232.819 602.818V528.891C231.937 526.931 228.851 525.952 223.56 525.952V522.865H245.018L276.323 591.207L307.628 522.865H329.38V525.952C324.089 525.952 321.003 526.931 320.121 528.891V602.818C321.003 604.778 324.089 605.758 329.38 605.758V608.844H297.34V605.758C302.631 605.758 305.718 604.778 306.599 602.818V536.827L273.678 608.844H271.473L237.816 535.946V602.818C238.698 604.778 241.785 605.758 247.076 605.758V608.844H223.56ZM443.682 608.844V605.758C448.189 605.758 451.031 605.17 452.207 603.994L443.976 581.507H415.758L408.115 603.112C409.095 604.876 412.132 605.758 417.227 605.758V608.844H393.124V605.758C398.611 605.758 401.697 604.729 402.383 602.671L430.896 522.865H437.95L466.463 602.671C467.149 604.729 470.284 605.758 475.869 605.758V608.844H443.682ZM429.72 542.412L417.521 576.657H442.213L429.72 542.412ZM529.22 522.865H603V537.121H599.914C599.914 531.83 598.934 528.744 596.975 527.862H572.871V602.818C573.753 604.778 576.839 605.758 582.13 605.758V608.844H550.09V605.758C555.381 605.758 558.468 604.778 559.35 602.818V527.862H535.246C533.287 528.744 532.307 531.83 532.307 537.121H529.22V522.865ZM701.044 610.314C696.243 610.314 691.344 609.579 686.347 608.109C681.349 606.639 678.753 605.905 678.557 605.905C677.969 605.905 677.283 606.198 676.499 606.786C675.716 607.374 675.324 608.06 675.324 608.844H671.943V588.415H675.177C676.254 594.294 679.145 598.605 683.848 601.348C688.649 603.994 694.087 605.317 700.162 605.317C705.355 605.317 709.617 604.141 712.949 601.789C716.28 599.438 717.946 595.91 717.946 591.207C717.946 589.052 717.456 587.092 716.476 585.328C715.594 583.565 714.173 581.948 712.214 580.478C710.352 578.911 708.539 577.637 706.776 576.657C705.012 575.579 702.709 574.305 699.868 572.836C697.125 571.268 695.018 570.043 693.548 569.161C690.119 567.006 687.571 565.389 685.906 564.311C684.24 563.136 682.084 561.421 679.439 559.167C676.891 556.914 675.03 554.562 673.854 552.113C672.678 549.663 672.09 547.018 672.09 544.176C672.09 538.395 674.736 533.153 680.027 528.45C685.318 523.747 691.246 521.395 697.81 521.395C700.652 521.395 704.179 522.13 708.392 523.6C712.606 525.07 715.006 525.805 715.594 525.805C716.77 525.805 717.358 524.825 717.358 522.865H720.738L722.208 541.531H718.974C718.387 537.219 716.231 533.643 712.508 530.802C708.784 527.862 703.934 526.392 697.957 526.392C693.45 526.392 689.825 527.862 687.081 530.802C684.436 533.643 683.113 536.534 683.113 539.473C683.113 541.335 683.554 543.098 684.436 544.764C685.318 546.332 686.689 547.801 688.551 549.173C690.413 550.545 692.176 551.77 693.842 552.847C695.508 553.827 697.712 555.052 700.456 556.522C703.297 557.992 705.453 559.167 706.923 560.049C710.94 562.499 713.83 564.311 715.594 565.487C717.358 566.663 719.611 568.476 722.355 570.925C725.196 573.375 727.156 575.922 728.234 578.568C729.409 581.115 729.997 583.957 729.997 587.092C729.997 594.343 727.058 600.026 721.179 604.141C715.3 608.256 708.588 610.314 701.044 610.314Z" fill="white"/>
<path fill-rule="evenodd" clip-rule="evenodd" d="M387.572 33.8126C381.3 52.4111 375.348 68.9778 374.348 70.6308C371.685 75.034 361.87 103.178 361.754 106.749C361.699 108.432 368.016 116.935 375.796 125.645C386.145 137.234 389.526 143.266 388.397 148.135C387.55 151.793 383.933 168.312 380.355 184.842C376.778 201.373 370.949 224.366 367.402 235.937C360.247 259.287 343.744 294.546 339.974 294.546C338.639 294.546 335.328 296.719 332.616 299.375C328.361 303.544 326.339 303.667 317.825 300.274C305.666 295.432 252.991 244.371 239.049 223.915C233.413 215.649 226.105 205.944 222.807 202.347C219.349 198.575 217.797 194.244 219.141 192.116C220.448 190.042 220.199 189.191 218.573 190.177C216.978 191.142 212.001 186.243 207.513 179.291C200.11 167.828 199.652 165.477 202.613 154.059L205.874 141.469L189.672 124.839C180.762 115.69 172.767 108.898 171.905 109.742C170.021 111.588 170.895 139.606 173.181 150.642C174.322 156.142 178.385 160.098 186.635 163.743C193.529 166.788 199.131 171.648 200.07 175.402C200.959 178.939 205.463 191.981 210.078 204.379C217.711 224.879 218.496 230.867 218.73 270.501C219.033 321.914 216.094 331.517 199.579 333.074C190.641 333.915 161.357 322.377 156.092 315.942C155.248 314.911 146.955 308.41 137.665 301.5C121.635 289.577 85.2779 254.839 41.153 209.287C25.0702 192.681 21.5082 187.286 22.9409 181.696C24.3093 176.355 22.0788 172.234 13.3164 163.897C7.04221 157.928 1.25279 153.687 0.452027 154.474C-0.351807 155.262 -0.0542157 162.7 1.11165 171.008C2.65796 182.032 4.79332 186.595 9.01498 187.908C16.8968 190.358 28.0002 206.251 28.0002 215.084C28.0002 219.055 29.1292 221.618 30.5129 220.783C32.7588 219.421 41.5427 232.255 54.8335 256.315C57.3708 260.91 66.6977 276.846 75.5552 291.723C84.4128 306.601 91.6626 319.435 91.6626 320.243C91.6626 321.055 95.3811 327.435 99.9249 334.429C112.004 353.016 162.228 439.904 162.228 442.212C162.228 446.624 170.886 446.928 182.315 442.918C188.985 440.58 199.965 437.448 206.715 435.963C213.465 434.479 232.785 429.781 249.65 425.522C303.071 412.033 344.901 407.438 413.81 407.492C459.377 407.528 485.158 408.976 507.386 412.742C524.26 415.604 539.447 418.372 541.134 418.892C542.822 419.412 548.344 420.836 553.407 422.057C558.469 423.277 566.452 425.699 571.146 427.44C586.29 433.057 583.925 427.154 568.416 420.617C525.543 402.548 451.59 390.718 381.613 390.733C318.282 390.745 258.473 399.566 205.46 416.71C192.961 420.755 181.118 423.454 179.145 422.715C177.173 421.972 164.971 400.931 152.027 375.957L128.495 330.546L140.034 337.684C177.381 360.779 198.376 365.54 219.521 355.712C234.055 348.955 238.104 341.802 242.277 315.527C248.505 276.335 246.634 277.384 271.145 299.345C298.812 324.132 308.59 328.674 330.475 326.897C345.699 325.659 348.659 324.246 357.956 313.784C371.283 298.783 383.338 274.976 392.045 246.456C395.831 234.058 399.356 222.562 399.874 220.909C400.911 217.621 400.884 217.552 410.855 247.959C425.02 291.155 442.137 318.584 458.797 324.787C480.605 332.912 503.146 324.715 532.237 298.089C550.888 281.02 554.579 281.177 555.119 299.054C555.266 304.013 558.395 316.838 562.068 327.556C567.241 342.65 571.097 348.577 579.172 353.854C597.44 365.792 626.276 360.734 657.457 340.116C669.616 332.079 671.527 331.556 671.527 336.278C671.527 341.781 667.097 357.064 662.28 368.182C656.837 380.742 640.788 430.743 641.862 431.792C643.387 433.285 665.391 400.6 665.391 396.84C665.391 395.193 670.045 386.72 675.731 378.007C685.788 362.607 702.561 333.804 727.406 289.274C734.509 276.545 740.933 268.295 742.841 269.452C744.737 270.6 745.213 270.011 743.974 268.045C741.973 264.875 780.797 195.022 785.755 192.87C796.112 188.377 801.383 180.406 800.978 169.854C800.736 163.578 799.8 157.72 798.898 156.833C797.993 155.95 793.026 159.184 787.862 164.023C780.533 170.887 778.83 174.599 780.112 180.923C781.579 188.142 776.507 194.223 733.545 236.742C707.028 262.987 677.05 291.468 666.925 300.034C644.418 319.077 614.262 334.462 602.121 333.101C587.112 331.418 584.081 320.604 584.136 268.998C584.186 226.235 584.68 222.562 593.743 197.616C598.998 183.153 602.428 171.344 601.364 171.38C600.299 171.413 594.043 179.712 587.465 189.82C552.026 244.256 503.293 294.539 478.785 301.951C471.259 304.226 458.45 296.159 461.619 291.137C462.521 289.707 461.834 288.534 460.091 288.534C456.284 288.534 448.365 274.489 440.606 253.97C434.7 238.353 413.81 153.551 413.81 145.199C413.81 142.575 419.332 134.562 426.082 127.388C439.232 113.412 440.971 105.207 434.347 88.3787C432.332 83.2632 424.511 61.2835 416.967 39.5382C409.422 17.7929 402.286 0 401.111 0C399.939 0 393.846 15.2172 387.572 33.8126ZM627.04 110.587C625.353 111.849 617.391 119.676 609.347 127.977L594.724 143.071L598.918 154.94C603.505 167.915 604.039 168.122 618.603 162.532C626.887 159.355 628.587 157.104 628.648 149.232C628.691 144.021 629.538 132.657 630.529 123.98C632.4 107.635 632.17 106.749 627.04 110.587ZM319.436 188.194C317.788 191.31 314.782 201.298 312.754 210.39C310.726 219.481 307.099 235.101 304.691 245.098C297.729 274.023 297.272 282.316 302.761 280.254C305.353 279.277 306.621 279.785 305.608 281.387C304.605 282.98 306.421 284.477 309.643 284.714C314.005 285.036 316.478 281.955 319.325 272.644L323.151 260.138L326.52 271.908C328.373 278.379 331.457 284.185 333.368 284.807C339.228 286.722 346.294 265.99 343.069 256.36C341.52 251.74 337.433 235.11 333.985 219.406C326.627 185.873 323.829 179.874 319.436 188.194ZM476.659 186.417C475.146 188.816 471.4 201.616 468.338 214.862C465.273 228.107 460.975 246.649 458.784 256.068C456.594 265.485 455.732 272.629 456.867 271.941C458.002 271.252 460.487 274.03 462.383 278.108C467.495 289.096 471.676 287.179 475.834 271.947L479.543 258.365L483.602 271.995C487.274 284.342 488.244 285.321 493.862 282.376C497.27 280.588 500.774 277.312 501.642 275.093C503.419 270.555 489.085 205.271 483.218 191.19C480.233 184.019 478.822 182.991 476.659 186.417ZM174.608 272.755C174.666 277.3 176.568 289.475 178.829 299.805C181.094 310.138 182.079 318.677 181.023 318.779C179.968 318.885 182.266 320.216 186.131 321.734C190.819 323.579 195.093 323.315 198.974 320.94C210.026 314.181 208.896 306.165 193.881 284.777C186.046 273.618 178.48 264.49 177.068 264.49C175.657 264.49 174.549 268.211 174.608 272.755ZM608.979 283.395C593.273 304.957 591.81 311.719 601.164 319.564C608.976 326.116 618.787 323.66 620.871 314.632C625.479 294.639 628.12 268.854 625.792 266.573C624.288 265.1 616.968 272.428 608.979 283.395Z" fill="#C9861B"/>
</svg>
